<?xml version="1.0" encoding="iso-8859-1"?>
<!-- Uploaded to: SVG Repo, www.svgrepo.com, Generator: SVG Repo Mixer Tools -->
<svg fill="#000000" height="800px" width="800px" version="1.1" id="Capa_1" xmlns="http://www.w3.org/2000/svg" xmlns:xlink="http://www.w3.org/1999/xlink" 
	 viewBox="0 0 462.646 462.646" xml:space="preserve">
<g>
	<path d="M350.008,105.105c-20.73-37.376-50.944-70.379-87.375-95.442v0c-18.728-12.884-43.892-12.884-62.619,0
		c-36.431,25.063-66.645,58.066-87.375,95.442c-21.468,38.705-32.815,82.351-32.815,126.218s11.348,87.513,32.815,126.218
		c20.73,37.376,50.944,70.379,87.375,95.442c9.364,6.443,20.335,9.664,31.31,9.663c10.972-0.001,21.947-3.222,31.311-9.663
		c36.431-25.063,66.644-58.066,87.374-95.442c21.468-38.706,32.815-82.351,32.815-126.218S371.475,143.81,350.008,105.105z
		 M154.555,70.823h153.535c4.657,5.505,9.083,11.174,13.248,17H141.307C145.472,81.997,149.898,76.328,154.555,70.823z
		 M208.515,22.021c6.821-4.692,14.814-7.039,22.808-7.039s15.986,2.347,22.808,7.039c0,0,0,0,0,0
		c14.559,10.016,28.051,21.376,40.276,33.802H168.24C180.465,43.397,193.957,32.036,208.515,22.021z M308.091,391.823H154.555
		c-4.657-5.505-9.083-11.174-13.248-17h180.031C317.174,380.649,312.748,386.318,308.091,391.823z M254.132,440.625
		c-13.643,9.385-31.974,9.386-45.616,0c-14.559-10.016-28.051-21.376-40.276-33.802h126.167
		C282.182,419.249,268.69,430.609,254.132,440.625z M336.89,350.265c-1.789,3.225-3.678,6.403-5.614,9.558H131.37
		c-1.936-3.154-3.826-6.332-5.614-9.558c-20.525-37.006-30.933-77.024-30.933-118.942s10.407-81.937,30.933-118.942
		c1.789-3.225,3.678-6.403,5.614-9.557h199.906c1.936,3.154,3.825,6.332,5.614,9.557c20.525,37.006,30.933,77.024,30.933,118.942
		S357.416,313.259,336.89,350.265z"/>
	<path d="M255.323,174.823c4.143,0,7.5-3.358,7.5-7.5s-3.357-7.5-7.5-7.5h-16.5v-32.5c0-4.142-3.357-7.5-7.5-7.5s-7.5,3.358-7.5,7.5
		v32.5h-16.5c-4.143,0-7.5,3.358-7.5,7.5s3.357,7.5,7.5,7.5h16.5v17h-16.5c-4.143,0-7.5,3.358-7.5,7.5s3.357,7.5,7.5,7.5h16.5v17
		h-16.5c-4.143,0-7.5,3.358-7.5,7.5s3.357,7.5,7.5,7.5h16.5v17h-16.5c-4.143,0-7.5,3.358-7.5,7.5s3.357,7.5,7.5,7.5h16.5v17h-16.5
		c-4.143,0-7.5,3.358-7.5,7.5s3.357,7.5,7.5,7.5h16.5v32.5c0,4.142,3.357,7.5,7.5,7.5s7.5-3.358,7.5-7.5v-32.5h16.5
		c4.143,0,7.5-3.358,7.5-7.5s-3.357-7.5-7.5-7.5h-16.5v-17h16.5c4.143,0,7.5-3.358,7.5-7.5s-3.357-7.5-7.5-7.5h-16.5v-17h16.5
		c4.143,0,7.5-3.358,7.5-7.5s-3.357-7.5-7.5-7.5h-16.5v-17h16.5c4.143,0,7.5-3.358,7.5-7.5s-3.357-7.5-7.5-7.5h-16.5v-17H255.323z"
		/>
</g>
</svg>